<?xml version="1.0" encoding="UTF-8" standalone="no"?>
<!DOCTYPE svg PUBLIC "-//W3C//DTD SVG 1.1//EN"
 "http://www.w3.org/Graphics/SVG/1.1/DTD/svg11.dtd">
<!-- Generated by graphviz version 2.40.1 (20161225.0304)
 -->
<!-- Title: controllers_diagram Pages: 1 -->
<svg width="370pt" height="473pt"
 viewBox="0.00 0.00 369.78 473.00" xmlns="http://www.w3.org/2000/svg" xmlns:xlink="http://www.w3.org/1999/xlink">
<g id="graph0" class="graph" transform="scale(1 1) rotate(0) translate(4 469)">
<title>controllers_diagram</title>
<polygon fill="transparent" stroke="transparent" points="-4,4 -4,-469 365.7793,-469 365.7793,4 -4,4"/>
<!-- _diagram_info -->
<g id="node1" class="node">
<title>_diagram_info</title>
<text text-anchor="start" x="158" y="-178.6" font-family="Times,serif" font-size="13.00" fill="#000000">Controllers diagram</text>
<text text-anchor="start" x="158" y="-165.6" font-family="Times,serif" font-size="13.00" fill="#000000">Date: Mar 26 2017 &#45; 09:06</text>
<text text-anchor="start" x="158" y="-152.6" font-family="Times,serif" font-size="13.00" fill="#000000">Migration version: 20170325080503</text>
<text text-anchor="start" x="158" y="-139.6" font-family="Times,serif" font-size="13.00" fill="#000000">Generated by RailRoady 1.5.2</text>
<text text-anchor="start" x="158" y="-126.6" font-family="Times,serif" font-size="13.00" fill="#000000">http://railroady.prestonlee.com</text>
</g>
<!-- ApplicationController -->
<g id="node2" class="node">
<title>ApplicationController</title>
<path fill="none" stroke="#000000" d="M162,-225.5C162,-225.5 277.6416,-225.5 277.6416,-225.5 283.6416,-225.5 289.6416,-231.5 289.6416,-237.5 289.6416,-237.5 289.6416,-317.5 289.6416,-317.5 289.6416,-323.5 283.6416,-329.5 277.6416,-329.5 277.6416,-329.5 162,-329.5 162,-329.5 156,-329.5 150,-323.5 150,-317.5 150,-317.5 150,-237.5 150,-237.5 150,-231.5 156,-225.5 162,-225.5"/>
<text text-anchor="middle" x="219.8208" y="-314.3" font-family="Times,serif" font-size="14.00" fill="#000000">ApplicationController</text>
<polyline fill="none" stroke="#000000" points="150,-307.5 289.6416,-307.5 "/>
<polyline fill="none" stroke="#000000" points="150,-283.5 289.6416,-283.5 "/>
<text text-anchor="start" x="158" y="-268.3" font-family="Times,serif" font-size="14.00" fill="#000000">logged_in?</text>
<polyline fill="none" stroke="#000000" points="150,-261.5 289.6416,-261.5 "/>
<text text-anchor="start" x="158" y="-246.3" font-family="Times,serif" font-size="14.00" fill="#000000">_layout</text>
<text text-anchor="start" x="158" y="-232.3" font-family="Times,serif" font-size="14.00" fill="#000000">current_user</text>
</g>
<!-- GamesController -->
<g id="node3" class="node">
<title>GamesController</title>
<path fill="none" stroke="#000000" d="M12,-75.5C12,-75.5 110.5313,-75.5 110.5313,-75.5 116.5313,-75.5 122.5313,-81.5 122.5313,-87.5 122.5313,-87.5 122.5313,-279.5 122.5313,-279.5 122.5313,-285.5 116.5313,-291.5 110.5313,-291.5 110.5313,-291.5 12,-291.5 12,-291.5 6,-291.5 0,-285.5 0,-279.5 0,-279.5 0,-87.5 0,-87.5 0,-81.5 6,-75.5 12,-75.5"/>
<text text-anchor="middle" x="61.2656" y="-276.3" font-family="Times,serif" font-size="14.00" fill="#000000">GamesController</text>
<polyline fill="none" stroke="#000000" points="0,-269.5 122.5313,-269.5 "/>
<text text-anchor="start" x="8" y="-254.3" font-family="Times,serif" font-size="14.00" fill="#000000">update</text>
<text text-anchor="start" x="8" y="-240.3" font-family="Times,serif" font-size="14.00" fill="#000000">destroy</text>
<text text-anchor="start" x="8" y="-226.3" font-family="Times,serif" font-size="14.00" fill="#000000">edit</text>
<text text-anchor="start" x="8" y="-212.3" font-family="Times,serif" font-size="14.00" fill="#000000">index</text>
<text text-anchor="start" x="8" y="-198.3" font-family="Times,serif" font-size="14.00" fill="#000000">new</text>
<text text-anchor="start" x="8" y="-184.3" font-family="Times,serif" font-size="14.00" fill="#000000">show</text>
<text text-anchor="start" x="8" y="-170.3" font-family="Times,serif" font-size="14.00" fill="#000000">start</text>
<text text-anchor="start" x="8" y="-156.3" font-family="Times,serif" font-size="14.00" fill="#000000">create</text>
<polyline fill="none" stroke="#000000" points="0,-149.5 122.5313,-149.5 "/>
<polyline fill="none" stroke="#000000" points="0,-125.5 122.5313,-125.5 "/>
<text text-anchor="start" x="8" y="-110.3" font-family="Times,serif" font-size="14.00" fill="#000000">_layout</text>
<text text-anchor="start" x="8" y="-96.3" font-family="Times,serif" font-size="14.00" fill="#000000">find_game_params</text>
<text text-anchor="start" x="8" y="-82.3" font-family="Times,serif" font-size="14.00" fill="#000000">game_params</text>
</g>
<!-- PlayerController -->
<g id="node4" class="node">
<title>PlayerController</title>
<path fill="none" stroke="#000000" d="M27,-330.5C27,-330.5 112.3105,-330.5 112.3105,-330.5 118.3105,-330.5 124.3105,-336.5 124.3105,-342.5 124.3105,-342.5 124.3105,-450.5 124.3105,-450.5 124.3105,-456.5 118.3105,-462.5 112.3105,-462.5 112.3105,-462.5 27,-462.5 27,-462.5 21,-462.5 15,-456.5 15,-450.5 15,-450.5 15,-342.5 15,-342.5 15,-336.5 21,-330.5 27,-330.5"/>
<text text-anchor="middle" x="69.6553" y="-447.3" font-family="Times,serif" font-size="14.00" fill="#000000">PlayerController</text>
<polyline fill="none" stroke="#000000" points="15,-440.5 124.3105,-440.5 "/>
<text text-anchor="start" x="23" y="-425.3" font-family="Times,serif" font-size="14.00" fill="#000000">create</text>
<text text-anchor="start" x="23" y="-411.3" font-family="Times,serif" font-size="14.00" fill="#000000">destroy</text>
<text text-anchor="start" x="23" y="-397.3" font-family="Times,serif" font-size="14.00" fill="#000000">index</text>
<text text-anchor="start" x="23" y="-383.3" font-family="Times,serif" font-size="14.00" fill="#000000">upvote</text>
<polyline fill="none" stroke="#000000" points="15,-376.5 124.3105,-376.5 "/>
<polyline fill="none" stroke="#000000" points="15,-352.5 124.3105,-352.5 "/>
<text text-anchor="start" x="23" y="-337.3" font-family="Times,serif" font-size="14.00" fill="#000000">_layout</text>
</g>
<!-- SessionsController -->
<g id="node5" class="node">
<title>SessionsController</title>
<path fill="none" stroke="#000000" d="M252,-360.5C252,-360.5 349.7793,-360.5 349.7793,-360.5 355.7793,-360.5 361.7793,-366.5 361.7793,-372.5 361.7793,-372.5 361.7793,-452.5 361.7793,-452.5 361.7793,-458.5 355.7793,-464.5 349.7793,-464.5 349.7793,-464.5 252,-464.5 252,-464.5 246,-464.5 240,-458.5 240,-452.5 240,-452.5 240,-372.5 240,-372.5 240,-366.5 246,-360.5 252,-360.5"/>
<text text-anchor="middle" x="300.8896" y="-449.3" font-family="Times,serif" font-size="14.00" fill="#000000">SessionsController</text>
<polyline fill="none" stroke="#000000" points="240,-442.5 361.7793,-442.5 "/>
<text text-anchor="start" x="248" y="-427.3" font-family="Times,serif" font-size="14.00" fill="#000000">create</text>
<text text-anchor="start" x="248" y="-413.3" font-family="Times,serif" font-size="14.00" fill="#000000">destroy</text>
<polyline fill="none" stroke="#000000" points="240,-406.5 361.7793,-406.5 "/>
<polyline fill="none" stroke="#000000" points="240,-382.5 361.7793,-382.5 "/>
<text text-anchor="start" x="248" y="-367.3" font-family="Times,serif" font-size="14.00" fill="#000000">_layout</text>
</g>
<!-- WelcomeController -->
<g id="node6" class="node">
<title>WelcomeController</title>
<path fill="none" stroke="#000000" d="M162,-.5C162,-.5 264.0654,-.5 264.0654,-.5 270.0654,-.5 276.0654,-6.5 276.0654,-12.5 276.0654,-12.5 276.0654,-78.5 276.0654,-78.5 276.0654,-84.5 270.0654,-90.5 264.0654,-90.5 264.0654,-90.5 162,-90.5 162,-90.5 156,-90.5 150,-84.5 150,-78.5 150,-78.5 150,-12.5 150,-12.5 150,-6.5 156,-.5 162,-.5"/>
<text text-anchor="middle" x="213.0327" y="-75.3" font-family="Times,serif" font-size="14.00" fill="#000000">WelcomeController</text>
<polyline fill="none" stroke="#000000" points="150,-68.5 276.0654,-68.5 "/>
<text text-anchor="start" x="158" y="-53.3" font-family="Times,serif" font-size="14.00" fill="#000000">index</text>
<polyline fill="none" stroke="#000000" points="150,-46.5 276.0654,-46.5 "/>
<polyline fill="none" stroke="#000000" points="150,-22.5 276.0654,-22.5 "/>
<text text-anchor="start" x="158" y="-7.3" font-family="Times,serif" font-size="14.00" fill="#000000">_layout</text>
</g>
</g>
</svg>
