<?xml version="1.0" encoding="UTF-8" standalone="no"?>
<!DOCTYPE svg PUBLIC "-//W3C//DTD SVG 1.1//EN"
 "http://www.w3.org/Graphics/SVG/1.1/DTD/svg11.dtd">
<!-- Generated by graphviz version 2.40.1 (20161225.0304)
 -->
<!-- Title: controllers_diagram Pages: 1 -->
<svg width="418pt" height="561pt"
 viewBox="0.00 0.00 417.78 561.00" xmlns="http://www.w3.org/2000/svg" xmlns:xlink="http://www.w3.org/1999/xlink">
<g id="graph0" class="graph" transform="scale(1 1) rotate(0) translate(4 557)">
<title>controllers_diagram</title>
<polygon fill="transparent" stroke="transparent" points="-4,4 -4,-557 413.7793,-557 413.7793,4 -4,4"/>
<!-- _diagram_info -->
<g id="node1" class="node">
<title>_diagram_info</title>
<text text-anchor="start" x="184" y="-394.6" font-family="Times,serif" font-size="13.00" fill="#000000">Controllers diagram</text>
<text text-anchor="start" x="184" y="-381.6" font-family="Times,serif" font-size="13.00" fill="#000000">Date: Mar 28 2017 &#45; 10:41</text>
<text text-anchor="start" x="184" y="-368.6" font-family="Times,serif" font-size="13.00" fill="#000000">Migration version: 20170328082824</text>
<text text-anchor="start" x="184" y="-355.6" font-family="Times,serif" font-size="13.00" fill="#000000">Generated by RailRoady 1.5.2</text>
<text text-anchor="start" x="184" y="-342.6" font-family="Times,serif" font-size="13.00" fill="#000000">http://railroady.prestonlee.com</text>
</g>
<!-- ApplicationController -->
<g id="node2" class="node">
<title>ApplicationController</title>
<path fill="none" stroke="#000000" d="M12,-368.5C12,-368.5 127.6416,-368.5 127.6416,-368.5 133.6416,-368.5 139.6416,-374.5 139.6416,-380.5 139.6416,-380.5 139.6416,-460.5 139.6416,-460.5 139.6416,-466.5 133.6416,-472.5 127.6416,-472.5 127.6416,-472.5 12,-472.5 12,-472.5 6,-472.5 0,-466.5 0,-460.5 0,-460.5 0,-380.5 0,-380.5 0,-374.5 6,-368.5 12,-368.5"/>
<text text-anchor="middle" x="69.8208" y="-457.3" font-family="Times,serif" font-size="14.00" fill="#000000">ApplicationController</text>
<polyline fill="none" stroke="#000000" points="0,-450.5 139.6416,-450.5 "/>
<polyline fill="none" stroke="#000000" points="0,-426.5 139.6416,-426.5 "/>
<text text-anchor="start" x="8" y="-411.3" font-family="Times,serif" font-size="14.00" fill="#000000">ensure_logged_in</text>
<polyline fill="none" stroke="#000000" points="0,-404.5 139.6416,-404.5 "/>
<text text-anchor="start" x="8" y="-389.3" font-family="Times,serif" font-size="14.00" fill="#000000">_layout</text>
<text text-anchor="start" x="8" y="-375.3" font-family="Times,serif" font-size="14.00" fill="#000000">current_user</text>
</g>
<!-- GamesController -->
<g id="node3" class="node">
<title>GamesController</title>
<path fill="none" stroke="#000000" d="M12,-112.5C12,-112.5 110.5313,-112.5 110.5313,-112.5 116.5313,-112.5 122.5313,-118.5 122.5313,-124.5 122.5313,-124.5 122.5313,-316.5 122.5313,-316.5 122.5313,-322.5 116.5313,-328.5 110.5313,-328.5 110.5313,-328.5 12,-328.5 12,-328.5 6,-328.5 0,-322.5 0,-316.5 0,-316.5 0,-124.5 0,-124.5 0,-118.5 6,-112.5 12,-112.5"/>
<text text-anchor="middle" x="61.2656" y="-313.3" font-family="Times,serif" font-size="14.00" fill="#000000">GamesController</text>
<polyline fill="none" stroke="#000000" points="0,-306.5 122.5313,-306.5 "/>
<text text-anchor="start" x="8" y="-291.3" font-family="Times,serif" font-size="14.00" fill="#000000">update</text>
<text text-anchor="start" x="8" y="-277.3" font-family="Times,serif" font-size="14.00" fill="#000000">destroy</text>
<text text-anchor="start" x="8" y="-263.3" font-family="Times,serif" font-size="14.00" fill="#000000">edit</text>
<text text-anchor="start" x="8" y="-249.3" font-family="Times,serif" font-size="14.00" fill="#000000">index</text>
<text text-anchor="start" x="8" y="-235.3" font-family="Times,serif" font-size="14.00" fill="#000000">new</text>
<text text-anchor="start" x="8" y="-221.3" font-family="Times,serif" font-size="14.00" fill="#000000">show</text>
<text text-anchor="start" x="8" y="-207.3" font-family="Times,serif" font-size="14.00" fill="#000000">start</text>
<text text-anchor="start" x="8" y="-193.3" font-family="Times,serif" font-size="14.00" fill="#000000">create</text>
<polyline fill="none" stroke="#000000" points="0,-186.5 122.5313,-186.5 "/>
<polyline fill="none" stroke="#000000" points="0,-162.5 122.5313,-162.5 "/>
<text text-anchor="start" x="8" y="-147.3" font-family="Times,serif" font-size="14.00" fill="#000000">_layout</text>
<text text-anchor="start" x="8" y="-133.3" font-family="Times,serif" font-size="14.00" fill="#000000">find_game_params</text>
<text text-anchor="start" x="8" y="-119.3" font-family="Times,serif" font-size="14.00" fill="#000000">game_params</text>
</g>
<!-- PlayersController -->
<g id="node4" class="node">
<title>PlayersController</title>
<path fill="none" stroke="#000000" d="M172,-128.5C172,-128.5 262.7588,-128.5 262.7588,-128.5 268.7588,-128.5 274.7588,-134.5 274.7588,-140.5 274.7588,-140.5 274.7588,-290.5 274.7588,-290.5 274.7588,-296.5 268.7588,-302.5 262.7588,-302.5 262.7588,-302.5 172,-302.5 172,-302.5 166,-302.5 160,-296.5 160,-290.5 160,-290.5 160,-140.5 160,-140.5 160,-134.5 166,-128.5 172,-128.5"/>
<text text-anchor="middle" x="217.3794" y="-287.3" font-family="Times,serif" font-size="14.00" fill="#000000">PlayersController</text>
<polyline fill="none" stroke="#000000" points="160,-280.5 274.7588,-280.5 "/>
<text text-anchor="start" x="168" y="-265.3" font-family="Times,serif" font-size="14.00" fill="#000000">create</text>
<text text-anchor="start" x="168" y="-251.3" font-family="Times,serif" font-size="14.00" fill="#000000">destroy</text>
<text text-anchor="start" x="168" y="-237.3" font-family="Times,serif" font-size="14.00" fill="#000000">downvote</text>
<text text-anchor="start" x="168" y="-223.3" font-family="Times,serif" font-size="14.00" fill="#000000">index</text>
<text text-anchor="start" x="168" y="-209.3" font-family="Times,serif" font-size="14.00" fill="#000000">upvote</text>
<polyline fill="none" stroke="#000000" points="160,-202.5 274.7588,-202.5 "/>
<polyline fill="none" stroke="#000000" points="160,-178.5 274.7588,-178.5 "/>
<text text-anchor="start" x="168" y="-163.3" font-family="Times,serif" font-size="14.00" fill="#000000">_layout</text>
<text text-anchor="start" x="168" y="-149.3" font-family="Times,serif" font-size="14.00" fill="#000000">player_params</text>
<text text-anchor="start" x="168" y="-135.3" font-family="Times,serif" font-size="14.00" fill="#000000">set_game</text>
</g>
<!-- SessionsController -->
<g id="node5" class="node">
<title>SessionsController</title>
<path fill="none" stroke="#000000" d="M300,-448.5C300,-448.5 397.7793,-448.5 397.7793,-448.5 403.7793,-448.5 409.7793,-454.5 409.7793,-460.5 409.7793,-460.5 409.7793,-540.5 409.7793,-540.5 409.7793,-546.5 403.7793,-552.5 397.7793,-552.5 397.7793,-552.5 300,-552.5 300,-552.5 294,-552.5 288,-546.5 288,-540.5 288,-540.5 288,-460.5 288,-460.5 288,-454.5 294,-448.5 300,-448.5"/>
<text text-anchor="middle" x="348.8896" y="-537.3" font-family="Times,serif" font-size="14.00" fill="#000000">SessionsController</text>
<polyline fill="none" stroke="#000000" points="288,-530.5 409.7793,-530.5 "/>
<text text-anchor="start" x="296" y="-515.3" font-family="Times,serif" font-size="14.00" fill="#000000">create</text>
<text text-anchor="start" x="296" y="-501.3" font-family="Times,serif" font-size="14.00" fill="#000000">destroy</text>
<polyline fill="none" stroke="#000000" points="288,-494.5 409.7793,-494.5 "/>
<polyline fill="none" stroke="#000000" points="288,-470.5 409.7793,-470.5 "/>
<text text-anchor="start" x="296" y="-455.3" font-family="Times,serif" font-size="14.00" fill="#000000">_layout</text>
</g>
<!-- WelcomeController -->
<g id="node6" class="node">
<title>WelcomeController</title>
<path fill="none" stroke="#000000" d="M172,-.5C172,-.5 274.0654,-.5 274.0654,-.5 280.0654,-.5 286.0654,-6.5 286.0654,-12.5 286.0654,-12.5 286.0654,-78.5 286.0654,-78.5 286.0654,-84.5 280.0654,-90.5 274.0654,-90.5 274.0654,-90.5 172,-90.5 172,-90.5 166,-90.5 160,-84.5 160,-78.5 160,-78.5 160,-12.5 160,-12.5 160,-6.5 166,-.5 172,-.5"/>
<text text-anchor="middle" x="223.0327" y="-75.3" font-family="Times,serif" font-size="14.00" fill="#000000">WelcomeController</text>
<polyline fill="none" stroke="#000000" points="160,-68.5 286.0654,-68.5 "/>
<text text-anchor="start" x="168" y="-53.3" font-family="Times,serif" font-size="14.00" fill="#000000">index</text>
<polyline fill="none" stroke="#000000" points="160,-46.5 286.0654,-46.5 "/>
<polyline fill="none" stroke="#000000" points="160,-22.5 286.0654,-22.5 "/>
<text text-anchor="start" x="168" y="-7.3" font-family="Times,serif" font-size="14.00" fill="#000000">_layout</text>
</g>
</g>
</svg>
