<?xml version="1.0" encoding="UTF-8" standalone="no"?>
<!DOCTYPE svg PUBLIC "-//W3C//DTD SVG 1.1//EN"
 "http://www.w3.org/Graphics/SVG/1.1/DTD/svg11.dtd">
<!-- Generated by graphviz version 2.40.1 (20161225.0304)
 -->
<!-- Title: models_diagram Pages: 1 -->
<svg width="490pt" height="240pt"
 viewBox="0.00 0.00 489.69 240.00" xmlns="http://www.w3.org/2000/svg" xmlns:xlink="http://www.w3.org/1999/xlink">
<g id="graph0" class="graph" transform="scale(1 1) rotate(0) translate(4 236)">
<title>models_diagram</title>
<polygon fill="transparent" stroke="transparent" points="-4,4 -4,-236 485.6877,-236 485.6877,4 -4,4"/>
<!-- _diagram_info -->
<g id="node1" class="node">
<title>_diagram_info</title>
<text text-anchor="start" x="8" y="-217.6" font-family="Times,serif" font-size="13.00" fill="#000000">Models diagram</text>
<text text-anchor="start" x="8" y="-204.6" font-family="Times,serif" font-size="13.00" fill="#000000">Date: Mar 26 2017 &#45; 09:06</text>
<text text-anchor="start" x="8" y="-191.6" font-family="Times,serif" font-size="13.00" fill="#000000">Migration version: 20170325080503</text>
<text text-anchor="start" x="8" y="-178.6" font-family="Times,serif" font-size="13.00" fill="#000000">Generated by RailRoady 1.5.2</text>
<text text-anchor="start" x="8" y="-165.6" font-family="Times,serif" font-size="13.00" fill="#000000">http://railroady.prestonlee.com</text>
</g>
<!-- ApplicationRecord -->
<g id="node2" class="node">
<title>ApplicationRecord</title>
<ellipse fill="none" stroke="#000000" cx="302.6877" cy="-195.5" rx="77.2916" ry="18"/>
<text text-anchor="middle" x="302.6877" y="-191.3" font-family="Times,serif" font-size="14.00" fill="#000000">ApplicationRecord</text>
</g>
<!-- Game -->
<g id="node3" class="node">
<title>Game</title>
<ellipse fill="none" stroke="#000000" cx="429.6877" cy="-195.5" rx="31.4462" ry="18"/>
<text text-anchor="middle" x="429.6877" y="-191.3" font-family="Times,serif" font-size="14.00" fill="#000000">Game</text>
</g>
<!-- Player -->
<g id="node4" class="node">
<title>Player</title>
<ellipse fill="none" stroke="#000000" cx="376.6877" cy="-104" rx="32.8994" ry="18"/>
<text text-anchor="middle" x="376.6877" y="-99.8" font-family="Times,serif" font-size="14.00" fill="#000000">Player</text>
</g>
<!-- Game&#45;&gt;Player -->
<g id="edge1" class="edge">
<title>Game&#45;&gt;Player</title>
<path fill="none" stroke="#56911c" d="M415.4973,-171.0014C408.2107,-158.4217 399.3278,-143.0861 391.8999,-130.2626"/>
<ellipse fill="none" stroke="#56911c" cx="417.7139" cy="-174.8283" rx="4" ry="4"/>
<polygon fill="#56911c" stroke="#56911c" points="391.8044,-130.0976 390.6861,-119.1889 389.2983,-125.771 386.7921,-121.4444 386.7921,-121.4444 386.7921,-121.4444 389.2983,-125.771 382.8982,-123.6999 391.8044,-130.0976 391.8044,-130.0976"/>
</g>
<!-- User -->
<g id="node5" class="node">
<title>User</title>
<ellipse fill="none" stroke="#000000" cx="454.6877" cy="-104" rx="27" ry="18"/>
<text text-anchor="middle" x="454.6877" y="-99.8" font-family="Times,serif" font-size="14.00" fill="#000000">User</text>
</g>
<!-- Game&#45;&gt;User -->
<g id="edge2" class="edge">
<title>Game&#45;&gt;User</title>
<path fill="none" stroke="#a3f4ab" d="M437.2938,-167.6618C440.4187,-156.2246 444.0282,-143.0139 447.1464,-131.6014"/>
<polygon fill="#a3f4ab" stroke="#a3f4ab" points="437.2626,-167.7761 430.286,-176.2365 435.9448,-172.5993 434.6269,-177.4225 434.6269,-177.4225 434.6269,-177.4225 435.9448,-172.5993 438.9678,-178.6086 437.2626,-167.7761 437.2626,-167.7761"/>
<polygon fill="#a3f4ab" stroke="#a3f4ab" points="447.2082,-131.375 454.1848,-122.9146 448.526,-126.5518 449.8439,-121.7286 449.8439,-121.7286 449.8439,-121.7286 448.526,-126.5518 445.503,-120.5425 447.2082,-131.375 447.2082,-131.375"/>
</g>
<!-- ActsAsVotable::Vote -->
<g id="node6" class="node">
<title>ActsAsVotable::Vote</title>
<ellipse fill="none" stroke="#000000" cx="376.6877" cy="-18" rx="83.9272" ry="18"/>
<text text-anchor="middle" x="376.6877" y="-13.8" font-family="Times,serif" font-size="14.00" fill="#000000">ActsAsVotable::Vote</text>
</g>
<!-- Player&#45;&gt;ActsAsVotable::Vote -->
<g id="edge3" class="edge">
<title>Player&#45;&gt;ActsAsVotable::Vote</title>
<path fill="none" stroke="#037647" d="M357.9031,-80.633C355.5338,-76.6191 353.4742,-72.3373 352.136,-68 349.7304,-60.2031 351.5775,-52.1143 355.1354,-44.773"/>
<ellipse fill="none" stroke="#037647" cx="360.2227" cy="-84.1764" rx="4" ry="4"/>
<polygon fill="#037647" stroke="#037647" points="355.2655,-44.5536 364.2365,-38.247 357.8156,-40.2528 360.3657,-35.9519 360.3657,-35.9519 360.3657,-35.9519 357.8156,-40.2528 356.495,-33.6568 355.2655,-44.5536 355.2655,-44.5536"/>
<text text-anchor="middle" x="367.4636" y="-56.8" font-family="Times,serif" font-size="14.00" fill="#000000">votes</text>
</g>
<!-- Player&#45;&gt;ActsAsVotable::Vote -->
<g id="edge4" class="edge">
<title>Player&#45;&gt;ActsAsVotable::Vote</title>
<path fill="none" stroke="#7ae786" d="M380.7604,-77.7587C381.1429,-74.4799 381.4689,-71.1672 381.6877,-68 382.1808,-60.8662 381.8455,-53.1746 381.1617,-46.0139"/>
<ellipse fill="none" stroke="#7ae786" cx="380.2382" cy="-81.7703" rx="4" ry="4"/>
<polygon fill="#7ae786" stroke="#7ae786" points="381.1552,-45.9583 384.4347,-35.4943 380.5609,-40.9937 379.9666,-36.0291 379.9666,-36.0291 379.9666,-36.0291 380.5609,-40.9937 375.4985,-36.564 381.1552,-45.9583 381.1552,-45.9583"/>
<text text-anchor="middle" x="409.1257" y="-56.8" font-family="Times,serif" font-size="14.00" fill="#000000">votes_for</text>
</g>
</g>
</svg>
