<?xml version="1.0" encoding="UTF-8" standalone="no"?>
<!DOCTYPE svg PUBLIC "-//W3C//DTD SVG 1.1//EN"
 "http://www.w3.org/Graphics/SVG/1.1/DTD/svg11.dtd">
<!-- Generated by graphviz version 2.40.1 (20161225.0304)
 -->
<!-- Title: models_diagram Pages: 1 -->
<svg width="500pt" height="313pt"
 viewBox="0.00 0.00 499.69 313.00" xmlns="http://www.w3.org/2000/svg" xmlns:xlink="http://www.w3.org/1999/xlink">
<g id="graph0" class="graph" transform="scale(1 1) rotate(0) translate(4 309)">
<title>models_diagram</title>
<polygon fill="transparent" stroke="transparent" points="-4,4 -4,-309 495.6877,-309 495.6877,4 -4,4"/>
<!-- _diagram_info -->
<g id="node1" class="node">
<title>_diagram_info</title>
<text text-anchor="start" x="8" y="-290.6" font-family="Times,serif" font-size="13.00" fill="#000000">Models diagram</text>
<text text-anchor="start" x="8" y="-277.6" font-family="Times,serif" font-size="13.00" fill="#000000">Date: Mar 28 2017 &#45; 10:41</text>
<text text-anchor="start" x="8" y="-264.6" font-family="Times,serif" font-size="13.00" fill="#000000">Migration version: 20170328082824</text>
<text text-anchor="start" x="8" y="-251.6" font-family="Times,serif" font-size="13.00" fill="#000000">Generated by RailRoady 1.5.2</text>
<text text-anchor="start" x="8" y="-238.6" font-family="Times,serif" font-size="13.00" fill="#000000">http://railroady.prestonlee.com</text>
</g>
<!-- ApplicationRecord -->
<g id="node2" class="node">
<title>ApplicationRecord</title>
<ellipse fill="none" stroke="#000000" cx="302.6877" cy="-268.5" rx="77.2916" ry="18"/>
<text text-anchor="middle" x="302.6877" y="-264.3" font-family="Times,serif" font-size="14.00" fill="#000000">ApplicationRecord</text>
</g>
<!-- Game -->
<g id="node3" class="node">
<title>Game</title>
<ellipse fill="none" stroke="#000000" cx="429.6877" cy="-268.5" rx="31.4462" ry="18"/>
<text text-anchor="middle" x="429.6877" y="-264.3" font-family="Times,serif" font-size="14.00" fill="#000000">Game</text>
</g>
<!-- Player -->
<g id="node4" class="node">
<title>Player</title>
<ellipse fill="none" stroke="#000000" cx="421.6877" cy="-104" rx="32.8994" ry="18"/>
<text text-anchor="middle" x="421.6877" y="-99.8" font-family="Times,serif" font-size="14.00" fill="#000000">Player</text>
</g>
<!-- Game&#45;&gt;Player -->
<g id="edge1" class="edge">
<title>Game&#45;&gt;Player</title>
<path fill="none" stroke="#ca5b5d" d="M428.4116,-242.2601C426.9484,-212.1714 424.5587,-163.0336 423.0573,-132.161"/>
<ellipse fill="none" stroke="#ca5b5d" cx="428.6067" cy="-246.2718" rx="4" ry="4"/>
<polygon fill="#ca5b5d" stroke="#ca5b5d" points="423.0521,-132.052 427.0609,-121.8452 422.8092,-127.0579 422.5662,-122.0639 422.5662,-122.0639 422.5662,-122.0639 422.8092,-127.0579 418.0715,-122.2825 423.0521,-132.052 423.0521,-132.052"/>
</g>
<!-- User -->
<g id="node5" class="node">
<title>User</title>
<ellipse fill="none" stroke="#000000" cx="464.6877" cy="-177" rx="27" ry="18"/>
<text text-anchor="middle" x="464.6877" y="-172.8" font-family="Times,serif" font-size="14.00" fill="#000000">User</text>
</g>
<!-- Game&#45;&gt;User -->
<g id="edge2" class="edge">
<title>Game&#45;&gt;User</title>
<path fill="none" stroke="#0929b5" d="M440.0275,-241.469C444.5542,-229.6348 449.8534,-215.7813 454.3768,-203.9557"/>
<polygon fill="#0929b5" stroke="#0929b5" points="440.0088,-241.5179 432.2331,-249.2501 438.2225,-246.1879 436.4361,-250.8579 436.4361,-250.8579 436.4361,-250.8579 438.2225,-246.1879 440.6391,-252.4656 440.0088,-241.5179 440.0088,-241.5179"/>
<polygon fill="#0929b5" stroke="#0929b5" points="454.3874,-203.928 462.1631,-196.1957 456.1737,-199.258 457.9601,-194.588 457.9601,-194.588 457.9601,-194.588 456.1737,-199.258 453.7571,-192.9802 454.3874,-203.928 454.3874,-203.928"/>
</g>
<!-- Vote -->
<g id="node6" class="node">
<title>Vote</title>
<ellipse fill="none" stroke="#000000" cx="421.6877" cy="-18" rx="27" ry="18"/>
<text text-anchor="middle" x="421.6877" y="-13.8" font-family="Times,serif" font-size="14.00" fill="#000000">Vote</text>
</g>
<!-- Player&#45;&gt;Vote -->
<g id="edge3" class="edge">
<title>Player&#45;&gt;Vote</title>
<path fill="none" stroke="#4c5387" d="M395.5936,-84.0683C387.5041,-75.3742 381.7318,-64.7276 386.136,-54 388.4441,-48.3779 392.1014,-43.1652 396.2101,-38.5513"/>
<ellipse fill="none" stroke="#4c5387" cx="398.5931" cy="-86.9707" rx="4" ry="4"/>
<polygon fill="#4c5387" stroke="#4c5387" points="396.3133,-38.4483 406.5706,-34.5705 399.8527,-34.9166 403.3922,-31.385 403.3922,-31.385 403.3922,-31.385 399.8527,-34.9166 400.2137,-28.1995 396.3133,-38.4483 396.3133,-38.4483"/>
<text text-anchor="middle" x="411.9636" y="-56.8" font-family="Times,serif" font-size="14.00" fill="#000000">votes_by</text>
</g>
<!-- Player&#45;&gt;Vote -->
<g id="edge4" class="edge">
<title>Player&#45;&gt;Vote</title>
<path fill="none" stroke="#2dbf97" d="M433.6036,-78.8945C434.8749,-75.3066 435.9661,-71.6081 436.6877,-68 438.2449,-60.2144 436.9795,-51.9017 434.641,-44.3346"/>
<ellipse fill="none" stroke="#2dbf97" cx="432.0738" cy="-82.7734" rx="4" ry="4"/>
<polygon fill="#2dbf97" stroke="#2dbf97" points="434.6211,-44.2815 435.3072,-33.3371 432.8586,-39.6025 431.096,-34.9234 431.096,-34.9234 431.096,-34.9234 432.8586,-39.6025 426.8849,-36.5097 434.6211,-44.2815 434.6211,-44.2815"/>
<text text-anchor="middle" x="462.9636" y="-56.8" font-family="Times,serif" font-size="14.00" fill="#000000">votes_on</text>
</g>
<!-- User&#45;&gt;Player -->
<g id="edge5" class="edge">
<title>User&#45;&gt;Player</title>
<path fill="none" stroke="#75dfb7" d="M450.4815,-152.8825C446.2122,-145.6346 441.5076,-137.6477 437.1607,-130.268"/>
<ellipse fill="none" stroke="#75dfb7" cx="452.6844" cy="-156.6223" rx="4" ry="4"/>
<polygon fill="#75dfb7" stroke="#75dfb7" points="436.9808,-129.9626 435.7827,-119.0623 434.4431,-125.6544 431.9054,-121.3463 431.9054,-121.3463 431.9054,-121.3463 434.4431,-125.6544 428.0281,-123.6302 436.9808,-129.9626 436.9808,-129.9626"/>
</g>
</g>
</svg>
