<?xml version="1.0" encoding="UTF-8" standalone="no"?>
<!DOCTYPE svg PUBLIC "-//W3C//DTD SVG 1.1//EN"
 "http://www.w3.org/Graphics/SVG/1.1/DTD/svg11.dtd">
<!-- Generated by graphviz version 2.40.1 (20161225.0304)
 -->
<!-- Title: models_diagram Pages: 1 -->
<svg width="730pt" height="417pt"
 viewBox="0.00 0.00 729.66 417.00" xmlns="http://www.w3.org/2000/svg" xmlns:xlink="http://www.w3.org/1999/xlink">
<g id="graph0" class="graph" transform="scale(1 1) rotate(0) translate(4 413)">
<title>models_diagram</title>
<polygon fill="transparent" stroke="transparent" points="-4,4 -4,-413 725.657,-413 725.657,4 -4,4"/>
<!-- _diagram_info -->
<g id="node1" class="node">
<title>_diagram_info</title>
<text text-anchor="start" x="8" y="-366.6" font-family="Times,serif" font-size="13.00" fill="#000000">Models diagram</text>
<text text-anchor="start" x="8" y="-353.6" font-family="Times,serif" font-size="13.00" fill="#000000">Date: Mar 26 2017 &#45; 09:06</text>
<text text-anchor="start" x="8" y="-340.6" font-family="Times,serif" font-size="13.00" fill="#000000">Migration version: 20170325080503</text>
<text text-anchor="start" x="8" y="-327.6" font-family="Times,serif" font-size="13.00" fill="#000000">Generated by RailRoady 1.5.2</text>
<text text-anchor="start" x="8" y="-314.6" font-family="Times,serif" font-size="13.00" fill="#000000">http://railroady.prestonlee.com</text>
</g>
<!-- ApplicationRecord -->
<g id="node2" class="node">
<title>ApplicationRecord</title>
<ellipse fill="none" stroke="#000000" cx="302.6877" cy="-344.5" rx="77.2916" ry="18"/>
<text text-anchor="middle" x="302.6877" y="-340.3" font-family="Times,serif" font-size="14.00" fill="#000000">ApplicationRecord</text>
</g>
<!-- Game -->
<g id="node3" class="node">
<title>Game</title>
<path fill="none" stroke="#000000" d="M409.8254,-280.5C409.8254,-280.5 633.55,-280.5 633.55,-280.5 639.55,-280.5 645.55,-286.5 645.55,-292.5 645.55,-292.5 645.55,-396.5 645.55,-396.5 645.55,-402.5 639.55,-408.5 633.55,-408.5 633.55,-408.5 409.8254,-408.5 409.8254,-408.5 403.8254,-408.5 397.8254,-402.5 397.8254,-396.5 397.8254,-396.5 397.8254,-292.5 397.8254,-292.5 397.8254,-286.5 403.8254,-280.5 409.8254,-280.5"/>
<text text-anchor="middle" x="521.6877" y="-393.3" font-family="Times,serif" font-size="14.00" fill="#000000">Game</text>
<polyline fill="none" stroke="#000000" points="397.8254,-386.5 645.55,-386.5 "/>
<text text-anchor="start" x="405.8254" y="-371.3" font-family="Times,serif" font-size="14.00" fill="#000000">created_at :timestamp without time zone</text>
<text text-anchor="start" x="405.8254" y="-357.3" font-family="Times,serif" font-size="14.00" fill="#000000">title :character varying</text>
<text text-anchor="start" x="405.8254" y="-343.3" font-family="Times,serif" font-size="14.00" fill="#000000">description :text</text>
<text text-anchor="start" x="405.8254" y="-329.3" font-family="Times,serif" font-size="14.00" fill="#000000">id :integer</text>
<text text-anchor="start" x="405.8254" y="-315.3" font-family="Times,serif" font-size="14.00" fill="#000000">updated_at :timestamp without time zone</text>
<text text-anchor="start" x="405.8254" y="-301.3" font-family="Times,serif" font-size="14.00" fill="#000000">status :character varying</text>
<text text-anchor="start" x="405.8254" y="-287.3" font-family="Times,serif" font-size="14.00" fill="#000000">owner :integer</text>
</g>
<!-- Player -->
<g id="node4" class="node">
<title>Player</title>
<path fill="none" stroke="#000000" d="M323.4548,-128.5C323.4548,-128.5 409.9207,-128.5 409.9207,-128.5 415.9207,-128.5 421.9207,-134.5 421.9207,-140.5 421.9207,-140.5 421.9207,-188.5 421.9207,-188.5 421.9207,-194.5 415.9207,-200.5 409.9207,-200.5 409.9207,-200.5 323.4548,-200.5 323.4548,-200.5 317.4548,-200.5 311.4548,-194.5 311.4548,-188.5 311.4548,-188.5 311.4548,-140.5 311.4548,-140.5 311.4548,-134.5 317.4548,-128.5 323.4548,-128.5"/>
<text text-anchor="middle" x="366.6877" y="-185.3" font-family="Times,serif" font-size="14.00" fill="#000000">Player</text>
<polyline fill="none" stroke="#000000" points="311.4548,-178.5 421.9207,-178.5 "/>
<text text-anchor="start" x="319.4548" y="-163.3" font-family="Times,serif" font-size="14.00" fill="#000000">id :integer</text>
<text text-anchor="start" x="319.4548" y="-149.3" font-family="Times,serif" font-size="14.00" fill="#000000">user_id :integer</text>
<text text-anchor="start" x="319.4548" y="-135.3" font-family="Times,serif" font-size="14.00" fill="#000000">game_id :integer</text>
</g>
<!-- Game&#45;&gt;Player -->
<g id="edge1" class="edge">
<title>Game&#45;&gt;Player</title>
<path fill="none" stroke="#8eaa9b" d="M458.0297,-274.355C448.7779,-263.913 439.4309,-253.2246 430.6877,-243 421.3081,-232.031 411.3641,-220.0262 402.1818,-208.7775"/>
<ellipse fill="none" stroke="#8eaa9b" cx="460.8042" cy="-277.4786" rx="4" ry="4"/>
<polygon fill="#8eaa9b" stroke="#8eaa9b" points="401.9592,-208.5037 399.1403,-197.9063 398.8042,-204.6248 395.6492,-200.7458 395.6492,-200.7458 395.6492,-200.7458 398.8042,-204.6248 392.1582,-203.5853 401.9592,-208.5037 401.9592,-208.5037"/>
</g>
<!-- User -->
<g id="node5" class="node">
<title>User</title>
<path fill="none" stroke="#000000" d="M451.7185,-86.5C451.7185,-86.5 709.657,-86.5 709.657,-86.5 715.657,-86.5 721.657,-92.5 721.657,-98.5 721.657,-98.5 721.657,-230.5 721.657,-230.5 721.657,-236.5 715.657,-242.5 709.657,-242.5 709.657,-242.5 451.7185,-242.5 451.7185,-242.5 445.7185,-242.5 439.7185,-236.5 439.7185,-230.5 439.7185,-230.5 439.7185,-98.5 439.7185,-98.5 439.7185,-92.5 445.7185,-86.5 451.7185,-86.5"/>
<text text-anchor="middle" x="580.6877" y="-227.3" font-family="Times,serif" font-size="14.00" fill="#000000">User</text>
<polyline fill="none" stroke="#000000" points="439.7185,-220.5 721.657,-220.5 "/>
<text text-anchor="start" x="447.7185" y="-205.3" font-family="Times,serif" font-size="14.00" fill="#000000">image :character varying</text>
<text text-anchor="start" x="447.7185" y="-191.3" font-family="Times,serif" font-size="14.00" fill="#000000">provider :character varying</text>
<text text-anchor="start" x="447.7185" y="-177.3" font-family="Times,serif" font-size="14.00" fill="#000000">uid :character varying</text>
<text text-anchor="start" x="447.7185" y="-163.3" font-family="Times,serif" font-size="14.00" fill="#000000">name :character varying</text>
<text text-anchor="start" x="447.7185" y="-149.3" font-family="Times,serif" font-size="14.00" fill="#000000">oauth_token :character varying</text>
<text text-anchor="start" x="447.7185" y="-135.3" font-family="Times,serif" font-size="14.00" fill="#000000">oauth_expires_at :timestamp without time zone</text>
<text text-anchor="start" x="447.7185" y="-121.3" font-family="Times,serif" font-size="14.00" fill="#000000">created_at :timestamp without time zone</text>
<text text-anchor="start" x="447.7185" y="-107.3" font-family="Times,serif" font-size="14.00" fill="#000000">updated_at :timestamp without time zone</text>
<text text-anchor="start" x="447.7185" y="-93.3" font-family="Times,serif" font-size="14.00" fill="#000000">id :integer</text>
</g>
<!-- Game&#45;&gt;User -->
<g id="edge2" class="edge">
<title>Game&#45;&gt;User</title>
<path fill="none" stroke="#8b2b09" d="M545.8749,-270.7087C547.8715,-264.6174 549.9017,-258.4236 551.9272,-252.244"/>
<polygon fill="#8b2b09" stroke="#8b2b09" points="545.853,-270.7756 538.4621,-278.8765 544.2956,-275.5269 542.7382,-280.2782 542.7382,-280.2782 542.7382,-280.2782 544.2956,-275.5269 547.0144,-281.6799 545.853,-270.7756 545.853,-270.7756"/>
<polygon fill="#8b2b09" stroke="#8b2b09" points="551.9861,-252.0641 559.377,-243.9632 553.5435,-247.3129 555.1009,-242.5616 555.1009,-242.5616 555.1009,-242.5616 553.5435,-247.3129 550.8247,-241.1599 551.9861,-252.0641 551.9861,-252.0641"/>
</g>
<!-- ActsAsVotable::Vote -->
<g id="node6" class="node">
<title>ActsAsVotable::Vote</title>
<ellipse fill="none" stroke="#000000" cx="366.6877" cy="-18" rx="83.9272" ry="18"/>
<text text-anchor="middle" x="366.6877" y="-13.8" font-family="Times,serif" font-size="14.00" fill="#000000">ActsAsVotable::Vote</text>
</g>
<!-- Player&#45;&gt;ActsAsVotable::Vote -->
<g id="edge3" class="edge">
<title>Player&#45;&gt;ActsAsVotable::Vote</title>
<path fill="none" stroke="#c6c91f" d="M346.5325,-120.6609C339.7713,-100.2035 335.4573,-75.6465 342.136,-54 343.1173,-50.8193 344.4866,-47.6685 346.0815,-44.6313"/>
<ellipse fill="none" stroke="#c6c91f" cx="347.8935" cy="-124.5144" rx="4" ry="4"/>
<polygon fill="#c6c91f" stroke="#c6c91f" points="346.1731,-44.4811 355.2224,-38.2874 348.7769,-40.2125 351.3807,-35.944 351.3807,-35.944 351.3807,-35.944 348.7769,-40.2125 347.539,-33.6006 346.1731,-44.4811 346.1731,-44.4811"/>
<text text-anchor="middle" x="357.4636" y="-56.8" font-family="Times,serif" font-size="14.00" fill="#000000">votes</text>
</g>
<!-- Player&#45;&gt;ActsAsVotable::Vote -->
<g id="edge4" class="edge">
<title>Player&#45;&gt;ActsAsVotable::Vote</title>
<path fill="none" stroke="#e09d96" d="M370.9961,-120.2841C372.3734,-100.0639 373.1948,-75.8053 371.6877,-54 371.5126,-51.4663 371.269,-48.8394 370.9827,-46.2112"/>
<ellipse fill="none" stroke="#e09d96" cx="370.6932" cy="-124.4055" rx="4" ry="4"/>
<polygon fill="#e09d96" stroke="#e09d96" points="370.9793,-46.1838 374.1861,-35.6973 370.3506,-41.2235 369.7218,-36.2632 369.7218,-36.2632 369.7218,-36.2632 370.3506,-41.2235 365.2575,-36.829 370.9793,-46.1838 370.9793,-46.1838"/>
<text text-anchor="middle" x="399.1257" y="-56.8" font-family="Times,serif" font-size="14.00" fill="#000000">votes_for</text>
</g>
</g>
</svg>
