<?xml version="1.0" encoding="UTF-8" standalone="no"?>
<!DOCTYPE svg PUBLIC "-//W3C//DTD SVG 1.1//EN"
 "http://www.w3.org/Graphics/SVG/1.1/DTD/svg11.dtd">
<!-- Generated by graphviz version 2.40.1 (20161225.0304)
 -->
<!-- Title: models_diagram Pages: 1 -->
<svg width="792pt" height="634pt"
 viewBox="0.00 0.00 791.66 634.00" xmlns="http://www.w3.org/2000/svg" xmlns:xlink="http://www.w3.org/1999/xlink">
<g id="graph0" class="graph" transform="scale(1 1) rotate(0) translate(4 630)">
<title>models_diagram</title>
<polygon fill="transparent" stroke="transparent" points="-4,4 -4,-630 787.657,-630 787.657,4 -4,4"/>
<!-- _diagram_info -->
<g id="node1" class="node">
<title>_diagram_info</title>
<text text-anchor="start" x="8" y="-583.6" font-family="Times,serif" font-size="13.00" fill="#000000">Models diagram</text>
<text text-anchor="start" x="8" y="-570.6" font-family="Times,serif" font-size="13.00" fill="#000000">Date: Mar 28 2017 &#45; 10:41</text>
<text text-anchor="start" x="8" y="-557.6" font-family="Times,serif" font-size="13.00" fill="#000000">Migration version: 20170328082824</text>
<text text-anchor="start" x="8" y="-544.6" font-family="Times,serif" font-size="13.00" fill="#000000">Generated by RailRoady 1.5.2</text>
<text text-anchor="start" x="8" y="-531.6" font-family="Times,serif" font-size="13.00" fill="#000000">http://railroady.prestonlee.com</text>
</g>
<!-- ApplicationRecord -->
<g id="node2" class="node">
<title>ApplicationRecord</title>
<ellipse fill="none" stroke="#000000" cx="302.6877" cy="-561.5" rx="77.2916" ry="18"/>
<text text-anchor="middle" x="302.6877" y="-557.3" font-family="Times,serif" font-size="14.00" fill="#000000">ApplicationRecord</text>
</g>
<!-- Game -->
<g id="node3" class="node">
<title>Game</title>
<path fill="none" stroke="#000000" d="M409.8254,-497.5C409.8254,-497.5 633.55,-497.5 633.55,-497.5 639.55,-497.5 645.55,-503.5 645.55,-509.5 645.55,-509.5 645.55,-613.5 645.55,-613.5 645.55,-619.5 639.55,-625.5 633.55,-625.5 633.55,-625.5 409.8254,-625.5 409.8254,-625.5 403.8254,-625.5 397.8254,-619.5 397.8254,-613.5 397.8254,-613.5 397.8254,-509.5 397.8254,-509.5 397.8254,-503.5 403.8254,-497.5 409.8254,-497.5"/>
<text text-anchor="middle" x="521.6877" y="-610.3" font-family="Times,serif" font-size="14.00" fill="#000000">Game</text>
<polyline fill="none" stroke="#000000" points="397.8254,-603.5 645.55,-603.5 "/>
<text text-anchor="start" x="405.8254" y="-588.3" font-family="Times,serif" font-size="14.00" fill="#000000">created_at :timestamp without time zone</text>
<text text-anchor="start" x="405.8254" y="-574.3" font-family="Times,serif" font-size="14.00" fill="#000000">title :character varying</text>
<text text-anchor="start" x="405.8254" y="-560.3" font-family="Times,serif" font-size="14.00" fill="#000000">description :text</text>
<text text-anchor="start" x="405.8254" y="-546.3" font-family="Times,serif" font-size="14.00" fill="#000000">id :integer</text>
<text text-anchor="start" x="405.8254" y="-532.3" font-family="Times,serif" font-size="14.00" fill="#000000">updated_at :timestamp without time zone</text>
<text text-anchor="start" x="405.8254" y="-518.3" font-family="Times,serif" font-size="14.00" fill="#000000">status :character varying</text>
<text text-anchor="start" x="405.8254" y="-504.3" font-family="Times,serif" font-size="14.00" fill="#000000">owner :integer</text>
</g>
<!-- Player -->
<g id="node4" class="node">
<title>Player</title>
<path fill="none" stroke="#000000" d="M442.4548,-193.5C442.4548,-193.5 528.9207,-193.5 528.9207,-193.5 534.9207,-193.5 540.9207,-199.5 540.9207,-205.5 540.9207,-205.5 540.9207,-253.5 540.9207,-253.5 540.9207,-259.5 534.9207,-265.5 528.9207,-265.5 528.9207,-265.5 442.4548,-265.5 442.4548,-265.5 436.4548,-265.5 430.4548,-259.5 430.4548,-253.5 430.4548,-253.5 430.4548,-205.5 430.4548,-205.5 430.4548,-199.5 436.4548,-193.5 442.4548,-193.5"/>
<text text-anchor="middle" x="485.6877" y="-250.3" font-family="Times,serif" font-size="14.00" fill="#000000">Player</text>
<polyline fill="none" stroke="#000000" points="430.4548,-243.5 540.9207,-243.5 "/>
<text text-anchor="start" x="438.4548" y="-228.3" font-family="Times,serif" font-size="14.00" fill="#000000">id :integer</text>
<text text-anchor="start" x="438.4548" y="-214.3" font-family="Times,serif" font-size="14.00" fill="#000000">user_id :integer</text>
<text text-anchor="start" x="438.4548" y="-200.3" font-family="Times,serif" font-size="14.00" fill="#000000">game_id :integer</text>
</g>
<!-- Game&#45;&gt;Player -->
<g id="edge1" class="edge">
<title>Game&#45;&gt;Player</title>
<path fill="none" stroke="#c36265" d="M498.7545,-489.5001C496.3196,-479.6703 494.1882,-469.6451 492.6877,-460 482.8468,-396.7411 482.5686,-322.5759 483.7464,-275.8109"/>
<ellipse fill="none" stroke="#c36265" cx="499.7707" cy="-493.4562" rx="4" ry="4"/>
<polygon fill="#c36265" stroke="#c36265" points="483.75,-275.683 488.5333,-265.8154 483.8926,-270.685 484.0351,-265.6871 484.0351,-265.6871 484.0351,-265.6871 483.8926,-270.685 479.537,-265.5588 483.75,-275.683 483.75,-275.683"/>
</g>
<!-- User -->
<g id="node5" class="node">
<title>User</title>
<path fill="none" stroke="#000000" d="M513.7185,-303.5C513.7185,-303.5 771.657,-303.5 771.657,-303.5 777.657,-303.5 783.657,-309.5 783.657,-315.5 783.657,-315.5 783.657,-447.5 783.657,-447.5 783.657,-453.5 777.657,-459.5 771.657,-459.5 771.657,-459.5 513.7185,-459.5 513.7185,-459.5 507.7185,-459.5 501.7185,-453.5 501.7185,-447.5 501.7185,-447.5 501.7185,-315.5 501.7185,-315.5 501.7185,-309.5 507.7185,-303.5 513.7185,-303.5"/>
<text text-anchor="middle" x="642.6877" y="-444.3" font-family="Times,serif" font-size="14.00" fill="#000000">User</text>
<polyline fill="none" stroke="#000000" points="501.7185,-437.5 783.657,-437.5 "/>
<text text-anchor="start" x="509.7185" y="-422.3" font-family="Times,serif" font-size="14.00" fill="#000000">image :character varying</text>
<text text-anchor="start" x="509.7185" y="-408.3" font-family="Times,serif" font-size="14.00" fill="#000000">provider :character varying</text>
<text text-anchor="start" x="509.7185" y="-394.3" font-family="Times,serif" font-size="14.00" fill="#000000">uid :character varying</text>
<text text-anchor="start" x="509.7185" y="-380.3" font-family="Times,serif" font-size="14.00" fill="#000000">name :character varying</text>
<text text-anchor="start" x="509.7185" y="-366.3" font-family="Times,serif" font-size="14.00" fill="#000000">oauth_token :character varying</text>
<text text-anchor="start" x="509.7185" y="-352.3" font-family="Times,serif" font-size="14.00" fill="#000000">oauth_expires_at :timestamp without time zone</text>
<text text-anchor="start" x="509.7185" y="-338.3" font-family="Times,serif" font-size="14.00" fill="#000000">created_at :timestamp without time zone</text>
<text text-anchor="start" x="509.7185" y="-324.3" font-family="Times,serif" font-size="14.00" fill="#000000">updated_at :timestamp without time zone</text>
<text text-anchor="start" x="509.7185" y="-310.3" font-family="Times,serif" font-size="14.00" fill="#000000">id :integer</text>
</g>
<!-- Game&#45;&gt;User -->
<g id="edge2" class="edge">
<title>Game&#45;&gt;User</title>
<path fill="none" stroke="#2982d1" d="M570.5046,-488.8799C575.0663,-482.0939 579.7202,-475.1708 584.357,-468.273"/>
<polygon fill="#2982d1" stroke="#2982d1" points="570.438,-488.979 561.1244,-494.7677 567.6485,-493.1286 564.8591,-497.2782 564.8591,-497.2782 564.8591,-497.2782 567.6485,-493.1286 568.5937,-499.7887 570.438,-488.979 570.438,-488.979"/>
<polygon fill="#2982d1" stroke="#2982d1" points="584.6341,-467.8608 593.9476,-462.0721 587.4235,-463.7112 590.213,-459.5616 590.213,-459.5616 590.213,-459.5616 587.4235,-463.7112 586.4784,-457.0511 584.6341,-467.8608 584.6341,-467.8608"/>
</g>
<!-- Vote -->
<g id="node6" class="node">
<title>Vote</title>
<path fill="none" stroke="#000000" d="M373.8254,-.5C373.8254,-.5 597.55,-.5 597.55,-.5 603.55,-.5 609.55,-6.5 609.55,-12.5 609.55,-12.5 609.55,-130.5 609.55,-130.5 609.55,-136.5 603.55,-142.5 597.55,-142.5 597.55,-142.5 373.8254,-142.5 373.8254,-142.5 367.8254,-142.5 361.8254,-136.5 361.8254,-130.5 361.8254,-130.5 361.8254,-12.5 361.8254,-12.5 361.8254,-6.5 367.8254,-.5 373.8254,-.5"/>
<text text-anchor="middle" x="485.6877" y="-127.3" font-family="Times,serif" font-size="14.00" fill="#000000">Vote</text>
<polyline fill="none" stroke="#000000" points="361.8254,-120.5 609.55,-120.5 "/>
<text text-anchor="start" x="369.8254" y="-105.3" font-family="Times,serif" font-size="14.00" fill="#000000">updated_at :timestamp without time zone</text>
<text text-anchor="start" x="369.8254" y="-91.3" font-family="Times,serif" font-size="14.00" fill="#000000">vote :boolean</text>
<text text-anchor="start" x="369.8254" y="-77.3" font-family="Times,serif" font-size="14.00" fill="#000000">voteable_type :character varying</text>
<text text-anchor="start" x="369.8254" y="-63.3" font-family="Times,serif" font-size="14.00" fill="#000000">voteable_id :integer</text>
<text text-anchor="start" x="369.8254" y="-49.3" font-family="Times,serif" font-size="14.00" fill="#000000">voter_type :character varying</text>
<text text-anchor="start" x="369.8254" y="-35.3" font-family="Times,serif" font-size="14.00" fill="#000000">voter_id :integer</text>
<text text-anchor="start" x="369.8254" y="-21.3" font-family="Times,serif" font-size="14.00" fill="#000000">created_at :timestamp without time zone</text>
<text text-anchor="start" x="369.8254" y="-7.3" font-family="Times,serif" font-size="14.00" fill="#000000">id :integer</text>
</g>
<!-- Player&#45;&gt;Vote -->
<g id="edge3" class="edge">
<title>Player&#45;&gt;Vote</title>
<path fill="none" stroke="#69dd6d" d="M454.3845,-186.0731C452.6985,-182.4411 451.2447,-178.7291 450.136,-175 447.9523,-167.6557 447.3389,-160.0569 447.8552,-152.4659"/>
<ellipse fill="none" stroke="#69dd6d" cx="456.3115" cy="-189.8358" rx="4" ry="4"/>
<polygon fill="#69dd6d" stroke="#69dd6d" points="447.8598,-152.4302 453.6102,-143.093 448.5037,-147.4718 449.1477,-142.5134 449.1477,-142.5134 449.1477,-142.5134 448.5037,-147.4718 444.6851,-141.9339 447.8598,-152.4302 447.8598,-152.4302"/>
<text text-anchor="middle" x="475.9636" y="-163.8" font-family="Times,serif" font-size="14.00" fill="#000000">votes_by</text>
</g>
<!-- Player&#45;&gt;Vote -->
<g id="edge4" class="edge">
<title>Player&#45;&gt;Vote</title>
<path fill="none" stroke="#9f650d" d="M498.9028,-185.3504C499.6178,-181.8707 500.2295,-178.3917 500.6877,-175 501.6571,-167.8253 501.9605,-160.3746 501.782,-152.9079"/>
<ellipse fill="none" stroke="#9f650d" cx="497.9555" cy="-189.5288" rx="4" ry="4"/>
<polygon fill="#9f650d" stroke="#9f650d" points="501.7727,-152.7274 505.751,-142.5086 501.5149,-147.734 501.257,-142.7407 501.257,-142.7407 501.257,-142.7407 501.5149,-147.734 496.763,-142.9727 501.7727,-152.7274 501.7727,-152.7274"/>
<text text-anchor="middle" x="526.9636" y="-163.8" font-family="Times,serif" font-size="14.00" fill="#000000">votes_on</text>
</g>
<!-- User&#45;&gt;Player -->
<g id="edge5" class="edge">
<title>User&#45;&gt;Player</title>
<path fill="none" stroke="#06e8ee" d="M555.877,-297.454C547.1003,-288.9567 538.4637,-280.5952 530.4128,-272.8007"/>
<ellipse fill="none" stroke="#06e8ee" cx="559.0144" cy="-300.4914" rx="4" ry="4"/>
<polygon fill="#06e8ee" stroke="#06e8ee" points="530.3811,-272.77 526.3266,-262.5812 526.7888,-269.2921 523.1965,-265.8142 523.1965,-265.8142 523.1965,-265.8142 526.7888,-269.2921 520.0664,-269.0473 530.3811,-272.77 530.3811,-272.77"/>
</g>
</g>
</svg>
